<?xml version="1.0" encoding="UTF-8"?> <svg xmlns="http://www.w3.org/2000/svg" viewBox="0 0 923.21 244.12"><defs><style>.cls-1{fill:none;}.cls-2{fill:#b8b59d;}.cls-3{fill:#6d6d3e;}.cls-4{fill:#2f4e5e;}.cls-5{fill:#74808d;}</style></defs><title>LOGO_CEL_H_1</title><g id="Camada_2" data-name="Camada 2"><g id="Layer_2" data-name="Layer 2"><path class="cls-1" d="M175.84,162.55v-81L211.41,61,105.7,0,0,61V183.09l105.7,61,105.71-61-35.57-20.54"></path><path class="cls-2" d="M105.7,41.22l-70,40.42v80.84l70,40.42,70-40.42V81.64Zm46.46,107.66L105.7,175.7,59.25,148.88V95.24L105.7,68.42l46.46,26.82Z"></path><polygon class="cls-3" points="105.7 202.9 105.7 175.7 59.25 148.88 59.25 95.24 35.69 81.64 35.69 162.48 105.7 202.9"></polygon><polygon class="cls-4" points="105.7 243.9 105.7 202.9 35.69 162.48 35.69 81.64 105.7 41.22 105.7 0.22 0.19 61.14 0.19 182.98 105.7 243.9"></polygon><polygon class="cls-5" points="175.72 81.64 211.22 61.14 105.7 0.22 105.7 41.22 175.72 81.64"></polygon><polygon class="cls-5" points="105.7 202.9 105.7 243.9 211.22 182.98 175.72 162.48 105.7 202.9"></polygon><path class="cls-4" d="M239.62,139V105.26a12.6,12.6,0,0,1,12.56-12.64h12.16a12.6,12.6,0,0,1,12.56,12.64v1.2a1.26,1.26,0,0,1-1.28,1.28h-2.48a1.26,1.26,0,0,1-1.28-1.28v-1.2a7.53,7.53,0,0,0-7.52-7.6H252.18a7.53,7.53,0,0,0-7.52,7.6V139a7.51,7.51,0,0,0,7.52,7.52h12.16a7.51,7.51,0,0,0,7.52-7.52v-3a2.53,2.53,0,0,1,2.56-2.56h1.2a1.26,1.26,0,0,1,1.28,1.28V139a12.53,12.53,0,0,1-12.56,12.56H252.18A12.53,12.53,0,0,1,239.62,139Z"></path><path class="cls-4" d="M293.3,94.46a1.26,1.26,0,0,1,1.28-1.28h1.2a2.51,2.51,0,0,1,2.56,2.48v1.28a1.26,1.26,0,0,1-1.28,1.28h-2.48a1.26,1.26,0,0,1-1.28-1.28Zm0,13.12a1.26,1.26,0,0,1,1.28-1.28h2.48a1.26,1.26,0,0,1,1.28,1.28v42.8a1.26,1.26,0,0,1-1.28,1.28h-2.48a1.26,1.26,0,0,1-1.28-1.28Z"></path><path class="cls-4" d="M329.3,151.66A12.6,12.6,0,0,1,316.74,139V118.86A12.53,12.53,0,0,1,329.3,106.3h10.08A12.6,12.6,0,0,1,352,118.86v10.08a2.53,2.53,0,0,1-2.56,2.56H321.78V139a7.58,7.58,0,0,0,7.52,7.6h10.08a7.76,7.76,0,0,0,6.88-4.32,1.13,1.13,0,0,1,1.12-.72h2.72a1.23,1.23,0,0,1,1.2,1.68,12.67,12.67,0,0,1-3.68,5.28,12.42,12.42,0,0,1-8.24,3.12Zm0-40.32a7.51,7.51,0,0,0-7.52,7.52v7.6H347v-7.6a7.53,7.53,0,0,0-7.6-7.52Zm-.8-8.08,5-5a1.35,1.35,0,0,1,1.84,0l5,5a1.11,1.11,0,0,0,.8.4h4.08c.4,0,.64-.56.32-.8l-9-9a3,3,0,0,0-4.24,0l-9,9c-.32.24-.08.8.32.8h4.08A1.11,1.11,0,0,0,328.5,103.26Z"></path><path class="cls-4" d="M400.66,118.86a7.55,7.55,0,0,0-7.6-7.6h-17.6v39a1.26,1.26,0,0,1-1.28,1.28H371.7a1.26,1.26,0,0,1-1.28-1.28V107.5a1.26,1.26,0,0,1,1.28-1.28h21.36a12.67,12.67,0,0,1,12.64,12.64V150.3a1.26,1.26,0,0,1-1.28,1.28h-2.48a1.26,1.26,0,0,1-1.28-1.28Z"></path><path class="cls-4" d="M424.1,139V118.86a12.53,12.53,0,0,1,12.56-12.56h10.08a12.62,12.62,0,0,1,11.92,8.4,1.26,1.26,0,0,1-1.2,1.68h-2.64a1.23,1.23,0,0,1-1.2-.8,7.69,7.69,0,0,0-6.88-4.24H436.66a7.51,7.51,0,0,0-7.52,7.52V139a7.58,7.58,0,0,0,7.52,7.6h10.08a7.76,7.76,0,0,0,6.88-4.32,1.13,1.13,0,0,1,1.12-.72h2.72a1.23,1.23,0,0,1,1.2,1.68,12.67,12.67,0,0,1-3.68,5.28,12.42,12.42,0,0,1-8.24,3.12H436.66A12.6,12.6,0,0,1,424.1,139Z"></path><path class="cls-4" d="M474.42,94.46a1.26,1.26,0,0,1,1.28-1.28h1.2a2.51,2.51,0,0,1,2.56,2.48v1.28a1.26,1.26,0,0,1-1.28,1.28H475.7a1.26,1.26,0,0,1-1.28-1.28Zm0,13.12a1.26,1.26,0,0,1,1.28-1.28h2.48a1.26,1.26,0,0,1,1.28,1.28v42.8a1.26,1.26,0,0,1-1.28,1.28H475.7a1.26,1.26,0,0,1-1.28-1.28Z"></path><path class="cls-4" d="M493.86,139v-2a12.53,12.53,0,0,1,12.56-12.56H524.1v-5.6a7.53,7.53,0,0,0-7.6-7.52h-13a2.53,2.53,0,0,1-2.56-2.56v-1.2a1.26,1.26,0,0,1,1.28-1.28H516.5a12.6,12.6,0,0,1,12.64,12.56V149.1a2.53,2.53,0,0,1-2.56,2.56H506.42A12.6,12.6,0,0,1,493.86,139Zm5-2v2a7.58,7.58,0,0,0,7.52,7.6H524.1V129.5H506.42A7.51,7.51,0,0,0,498.9,137Z"></path><path class="cls-4" d="M581.94,139V118.86A12.53,12.53,0,0,1,594.5,106.3h10.08a12.6,12.6,0,0,1,12.64,12.56v10.08a2.53,2.53,0,0,1-2.56,2.56H587V139a7.58,7.58,0,0,0,7.52,7.6h10.08a7.76,7.76,0,0,0,6.88-4.32,1.13,1.13,0,0,1,1.12-.72h2.72a1.23,1.23,0,0,1,1.2,1.68,12.67,12.67,0,0,1-3.68,5.28,12.42,12.42,0,0,1-8.24,3.12H594.5A12.6,12.6,0,0,1,581.94,139Zm5-20.16v7.6h25.2v-7.6a7.53,7.53,0,0,0-7.6-7.52H594.5A7.51,7.51,0,0,0,587,118.86Z"></path><path class="cls-4" d="M670,149.1V93.9a1.26,1.26,0,0,1,1.28-1.28h1.2a2.53,2.53,0,0,1,2.56,2.56v51.36h25.68a2.53,2.53,0,0,1,2.56,2.56v1.2a1.26,1.26,0,0,1-1.28,1.28H672.49A2.49,2.49,0,0,1,670,149.1Z"></path><path class="cls-4" d="M715.29,139V118.86a12.53,12.53,0,0,1,12.56-12.56h10.08a12.6,12.6,0,0,1,12.64,12.56v10.08A2.53,2.53,0,0,1,748,131.5H720.33V139a7.58,7.58,0,0,0,7.52,7.6h10.08a7.76,7.76,0,0,0,6.88-4.32,1.13,1.13,0,0,1,1.12-.72h2.72a1.23,1.23,0,0,1,1.2,1.68,12.67,12.67,0,0,1-3.68,5.28,12.42,12.42,0,0,1-8.24,3.12H727.85A12.6,12.6,0,0,1,715.29,139Zm5-20.16v7.6h25.2v-7.6a7.53,7.53,0,0,0-7.6-7.52H727.85A7.51,7.51,0,0,0,720.33,118.86Z"></path><path class="cls-4" d="M769,139V98.7a1.32,1.32,0,0,1,1.28-1.28h2.48A1.32,1.32,0,0,1,774,98.7v7.6h11.6a2.49,2.49,0,0,1,2.48,2.48v1.28a1.3,1.3,0,0,1-1.2,1.28H774V139a7.51,7.51,0,0,0,7.52,7.52h6.08a2.63,2.63,0,0,1,2.56,2.56v1.28a1.3,1.3,0,0,1-1.28,1.2h-7.36A12.53,12.53,0,0,1,769,139Z"></path><path class="cls-4" d="M804.57,118.86a12.53,12.53,0,0,1,12.56-12.56h7.36a1.3,1.3,0,0,1,1.28,1.2v1.28a2.63,2.63,0,0,1-2.56,2.56h-6.08a7.51,7.51,0,0,0-7.52,7.52v31.52a1.25,1.25,0,0,1-1.28,1.2h-2.48a1.25,1.25,0,0,1-1.28-1.2Z"></path><path class="cls-4" d="M836.17,139v-2a12.53,12.53,0,0,1,12.56-12.56h17.68v-5.6a7.53,7.53,0,0,0-7.6-7.52h-13a2.53,2.53,0,0,1-2.56-2.56v-1.2a1.26,1.26,0,0,1,1.28-1.28h14.32a12.6,12.6,0,0,1,12.64,12.56V149.1a2.53,2.53,0,0,1-2.56,2.56H848.73A12.6,12.6,0,0,1,836.17,139Zm5-2v2a7.58,7.58,0,0,0,7.52,7.6h17.68V129.5H848.73A7.51,7.51,0,0,0,841.21,137Z"></path><path class="cls-4" d="M887.93,149.1a2.56,2.56,0,0,1,2.48-2.56h20.16a7.56,7.56,0,0,0,5.52-2.32,7.65,7.65,0,0,0,2.08-5.6,7.29,7.29,0,0,0-2.48-5.12,7.83,7.83,0,0,0-5.2-2h-10a12.69,12.69,0,0,1-8.8-3.68,12.44,12.44,0,0,1-3.76-8.72,12.31,12.31,0,0,1,3.6-9,13.14,13.14,0,0,1,9.28-3.84h17a1.25,1.25,0,0,1,1.28,1.2v1.28a2.58,2.58,0,0,1-2.56,2.56h-16a7.51,7.51,0,0,0-5.44,2.32,7.65,7.65,0,0,0-2.08,5.6,7.29,7.29,0,0,0,2.48,5.12,7.91,7.91,0,0,0,5.2,2.08h9.68a13.14,13.14,0,0,1,9.28,3.84,12.31,12.31,0,0,1,3.6,9,12.79,12.79,0,0,1-3.76,8.72,12.66,12.66,0,0,1-8.88,3.6H889.21a1.25,1.25,0,0,1-1.28-1.2Z"></path></g></g></svg> 